# xmcd
#
# Track frame offsets: 
#        150
#        13541
#        25979
#        46420
#        62468
#        78157
#        96669
#        114148
#        130088
#        143739
#        158159
#        160118
#        171879
#        186741
#        202408
#        219853
#        237059
#
# Disc length: 3411 seconds
#
# Revision: 0
# Processed by: cddbd v1.5.2PL0 Copyright (c) Steve Scherf et al.
# Submitted via: ExactAudioCopy v0.95b3
#
DISCID=e30d5111
DTITLE=Electric Light Orchestra  - Balance of Power [Remastered bonus 
DTITLE=tracks]  FLAC
DYEAR=1900
DGENRE=
TTITLE0=Heaven Only Knows
TTITLE1=So Serious
TTITLE2=Getting To The Point
TTITLE3=Secret Lives
TTITLE4=Is It Alright
TTITLE5=Sorrow About To Fall
TTITLE6=Without Someone
TTITLE7=Calling America
TTITLE8=Endless Lies
TTITLE9=Send It
TTITLE10=Opening
TTITLE11=Heaven Only Knows (alternate version)
TTITLE12=In For The Kill
TTITLE13=Secret Lives (alternate take)
TTITLE14=Sorrow About To Fall (alternate mix)
TTITLE15=Caught In A Trap (U.K. B-side)
TTITLE16=Destination Unknown (U.K. B-side)
EXTD=
EXTT0=
EXTT1=
EXTT2=
EXTT3=
EXTT4=
EXTT5=
EXTT6=
EXTT7=
EXTT8=
EXTT9=
EXTT10=
EXTT11=
EXTT12=
EXTT13=
EXTT14=
EXTT15=
EXTT16=
PLAYORDER=
